<svg xmlns="http://www.w3.org/2000/svg" viewBox="0 0 12 9"><defs><style>.cls-1{fill:#4285f4;}.cls-2{fill:#ea4335;}.cls-3{fill:#c5221f;}.cls-4{fill:#34a853;}.cls-5{fill:#fbbc04;}</style></defs><title>2자산 1</title><g id="레이어_2" data-name="레이어 2"><g id="레이어_1-2" data-name="레이어 1"><path class="cls-1" d="M0,2.32V8.18H0A.82.82,0,0,0,.82,9H2.73V4.37h0Z"/><polygon class="cls-2" points="8.73 4.78 9.27 4.37 9.27 0.82 6 3.27 2.73 0.82 2.73 4.37 3.27 4.78 2.73 4.37 2.73 4.37 6 6.82 9.27 4.37 9.27 4.37 8.73 4.78"/><path class="cls-3" d="M2.73.82,2,.25a1.22,1.22,0,0,0-2,1V2.32L2.73,4.37Z"/><path class="cls-4" d="M9.27,4.37V9h1.91A.82.82,0,0,0,12,8.18V2.32L9.27,4.37Z"/><path class="cls-5" d="M10,.25,9.27.82V4.37L12,2.32V1.23A1.22,1.22,0,0,0,10,.25Z"/></g></g></svg>