<?xml version="1.0" encoding="utf-8"?>
<!-- Generator: Adobe Illustrator 22.0.1, SVG Export Plug-In . SVG Version: 6.00 Build 0)  -->
<svg version="1.1" id="레이어_1" xmlns="http://www.w3.org/2000/svg" xmlns:xlink="http://www.w3.org/1999/xlink" x="0px"
	 y="0px" viewBox="0 0 105 77" style="enable-background:new 0 0 105 77;" xml:space="preserve">
<style type="text/css">
	.st0{fill:#003668;}
	.st1{fill:#E6002D;}
	.st2{fill:#575756;}
</style>
<g>
	<g>
		<g>
			<g>
				<g>
					<g>
						<g>
							<path class="st0" d="M64.1,24.4c-4.1-2.8-9.2-1.6-12,2.5c-2.3,3.5-5.7,3.9-7,3.9c-4.3,0-7.3-3-8.2-6.2h0c0,0,0-0.1,0-0.1
								c0,0,0-0.1,0-0.1c-0.3-1.3-0.4-1.9-0.4-3.3c0-7.5,7.7-15.9,18.9-15.9c11.4,0,18,8.7,19.6,13.5c0-0.1-0.1-0.2-0.1-0.3
								C71.6,8.9,62.6,2.1,52.1,2.1c-13.3,0-24,10.8-24,24c0,11.9,8.6,22,20.4,22c9.5,0,15.8-5.3,18.8-12.6
								C68.8,31.6,67.7,26.9,64.1,24.4z"/>
						</g>
						<g>
							<path class="st1" d="M75.1,19.1c-1.4-4.7-8-14-19.8-14c-11.2,0-18.9,8.4-18.9,15.9c0,1.4,0.1,2,0.4,3.3
								c-0.1-0.6-0.2-1.2-0.2-1.7c0-7.9,7.9-13.3,16-13.3c11,0,19.8,8.9,19.8,19.8c0,8.6-4.9,16-12.1,19.6l0,0
								c9.3-3.4,15.9-12.2,15.9-22.6C76.1,23.7,75.8,21.5,75.1,19.1z"/>
						</g>
					</g>
				</g>
			</g>
		</g>
	</g>
	<g>
		<path class="st2" d="M14.8,69.8v4.8h-1.7v-3.3H4v-1.5h4.6v-2H3.2v-1.5h12.7v1.5h-5.5v2H14.8z M14.8,61.1v4.1h-1.7v-2.6H4.2v-1.5
			H14.8z"/>
		<path class="st2" d="M18.1,68.3v-7.1h7.1v7.1H18.1z M18.5,74.3v-4.6h1.7v3.1h9.6v1.5H18.5z M23.6,62.7h-3.7v4.1h3.7V62.7z
			 M28,69.6v-8.8h1.7v8.8H28z"/>
		<path class="st2" d="M37.4,68.5v1.9h-1.7v-1.9h-3.8v-1.4h9.2v1.4H37.4z M37.9,66.4v-3.7h-5.1v-1.5h6.8v5.2H37.9z M34.5,69.7v3.1
			h9.9v1.5H32.8v-4.6H34.5z M42.3,65.9h-2v-1.4h2v-3.7H44v9.8h-1.7V65.9z"/>
		<path class="st2" d="M53.6,64.5c0,0.5-0.1,0.9-0.3,1.3c-0.2,0.4-0.5,0.8-0.8,1.1c-0.3,0.3-0.7,0.6-1.2,0.8
			c-0.4,0.2-0.9,0.3-1.4,0.3c-0.5,0-1-0.1-1.4-0.3c-0.4-0.2-0.8-0.4-1.2-0.8c-0.3-0.3-0.6-0.7-0.8-1.1c-0.2-0.4-0.3-0.9-0.3-1.3
			c0-0.5,0.1-0.9,0.3-1.4c0.2-0.4,0.5-0.8,0.8-1.1c0.3-0.3,0.7-0.6,1.2-0.8C49,61.1,49.5,61,50,61c0.5,0,1,0.1,1.4,0.3
			c0.4,0.2,0.8,0.4,1.2,0.8c0.3,0.3,0.6,0.7,0.8,1.1C53.5,63.5,53.6,64,53.6,64.5z M47.2,69.1h11v5.4h-1.7v-3.9h-9.3V69.1z M52,64.5
			c0-0.5-0.2-1-0.6-1.4c-0.4-0.4-0.8-0.6-1.4-0.6s-1,0.2-1.4,0.6c-0.4,0.4-0.6,0.9-0.6,1.4c0,0.5,0.2,1,0.6,1.4
			c0.4,0.4,0.9,0.6,1.4,0.6s1-0.2,1.4-0.6C51.8,65.5,52,65,52,64.5z M56.6,60.8h1.7v7.4h-1.7V60.8z"/>
		<path class="st2" d="M60.3,70.4v-1.5h9.2v1.5h-3.9v3.7H64v-3.7H60.3z M68.5,64.5c0,0.5-0.1,0.9-0.3,1.3c-0.2,0.4-0.5,0.8-0.8,1.1
			c-0.3,0.3-0.7,0.6-1.2,0.8c-0.4,0.2-0.9,0.3-1.4,0.3c-0.5,0-1-0.1-1.4-0.3c-0.4-0.2-0.8-0.4-1.2-0.8c-0.3-0.3-0.6-0.7-0.8-1.1
			c-0.2-0.4-0.3-0.9-0.3-1.3c0-0.5,0.1-0.9,0.3-1.3c0.2-0.4,0.5-0.8,0.8-1.1c0.3-0.3,0.7-0.6,1.2-0.8c0.4-0.2,0.9-0.3,1.4-0.3
			c0.5,0,1,0.1,1.4,0.3c0.4,0.2,0.8,0.4,1.2,0.8c0.3,0.3,0.6,0.7,0.8,1.1C68.4,63.6,68.5,64.1,68.5,64.5z M66.8,64.5
			c0-0.6-0.2-1-0.6-1.4c-0.4-0.4-0.9-0.6-1.4-0.6c-0.6,0-1,0.2-1.4,0.6c-0.4,0.4-0.6,0.9-0.6,1.4c0,0.5,0.2,1,0.6,1.4
			c0.4,0.4,0.9,0.6,1.4,0.6c0.6,0,1-0.2,1.4-0.6C66.6,65.6,66.8,65.1,66.8,64.5z M70.6,60.8h1.7v13.8h-1.7V60.8z"/>
		<path class="st2" d="M80.1,68.8v1.9h-1.7v-1.9h-3.8v-1.4h9.2v1.4H80.1z M77.3,70v2.9h9.9v1.5H75.5V70H77.3z M82.5,63.7
			c0,0.4-0.1,0.8-0.3,1.2c-0.2,0.4-0.4,0.7-0.7,1c-0.3,0.3-0.7,0.5-1.1,0.7c-0.4,0.2-0.8,0.2-1.3,0.2s-0.9-0.1-1.3-0.2
			c-0.4-0.2-0.8-0.4-1.1-0.7c-0.3-0.3-0.5-0.6-0.7-1c-0.2-0.4-0.3-0.8-0.3-1.2c0-0.4,0.1-0.8,0.3-1.2c0.2-0.4,0.4-0.7,0.7-1
			c0.3-0.3,0.7-0.5,1.1-0.7c0.4-0.2,0.8-0.2,1.3-0.2s0.9,0.1,1.3,0.2c0.4,0.2,0.8,0.4,1.1,0.7c0.3,0.3,0.5,0.6,0.7,1
			C82.4,62.9,82.5,63.3,82.5,63.7z M80.9,63.7c0-0.5-0.2-0.9-0.5-1.2c-0.3-0.3-0.7-0.5-1.2-0.5s-0.9,0.2-1.2,0.5
			c-0.3,0.3-0.5,0.7-0.5,1.2c0,0.5,0.2,0.9,0.5,1.2c0.3,0.3,0.7,0.5,1.2,0.5s0.9-0.2,1.2-0.5C80.7,64.6,80.9,64.2,80.9,63.7z
			 M85.1,66.1h-2v-1.4h2v-3.9h1.7v10h-1.7V66.1z"/>
		<path class="st2" d="M98.1,73.2H89v-1.5h3.6V70c-0.2,0-0.3-0.1-0.5-0.2c-0.4-0.2-0.8-0.4-1.1-0.7c-0.3-0.3-0.6-0.6-0.7-1
			c-0.2-0.4-0.3-0.8-0.3-1.2c0-0.4,0.1-0.8,0.3-1.2c0.2-0.4,0.4-0.7,0.7-1c0.3-0.3,0.7-0.5,1.1-0.7c0.4-0.2,0.8-0.2,1.3-0.2
			c0.5,0,0.9,0.1,1.3,0.2c0.4,0.2,0.8,0.4,1.1,0.7c0.3,0.3,0.6,0.6,0.7,1c0.2,0.4,0.3,0.8,0.3,1.2c0,0.4-0.1,0.8-0.3,1.2
			c-0.2,0.4-0.4,0.7-0.7,1c-0.3,0.3-0.7,0.5-1.1,0.7c-0.2,0.1-0.3,0.1-0.5,0.2v1.7h3.8V73.2z M92.5,62.2v-1.5h1.9v1.5h3.4v1.5h-8.6
			v-1.5H92.5z M95.2,67c0-0.5-0.2-0.8-0.5-1.2c-0.3-0.3-0.7-0.5-1.2-0.5c-0.5,0-0.9,0.2-1.2,0.5c-0.3,0.3-0.5,0.7-0.5,1.2
			c0,0.5,0.2,0.8,0.5,1.2c0.3,0.3,0.7,0.5,1.2,0.5c0.5,0,0.9-0.2,1.2-0.5C95,67.8,95.2,67.4,95.2,67z M99.3,60.8h1.7v13.8h-1.7V60.8
			z"/>
	</g>
</g>
</svg>
